<?xml version="1.0" standalone="no"?>
<!DOCTYPE svg PUBLIC "-//W3C//DTD SVG 20010904//EN"
 "http://www.w3.org/TR/2001/REC-SVG-20010904/DTD/svg10.dtd">
<svg version="1.0" xmlns="http://www.w3.org/2000/svg"
 width="640.000000pt" height="640.000000pt" viewBox="0 0 640.000000 640.000000"
 preserveAspectRatio="xMidYMid meet">
<metadata>
Created by potrace 1.14, written by Peter Selinger 2001-2017
</metadata>
<g transform="translate(0.000000,640.000000) scale(0.100000,-0.100000)"
fill="#000000" stroke="none">
<path d="M0 3200 l0 -3200 3200 0 3200 0 0 3200 0 3200 -3200 0 -3200 0 0
-3200z m5120 1720 c235 -14 492 -59 623 -109 l27 -11 0 -360 c0 -198 -3 -360
-7 -360 -5 0 -33 14 -63 31 -284 158 -757 209 -1055 113 -270 -87 -461 -252
-586 -504 -76 -155 -110 -324 -110 -550 0 -328 77 -554 259 -758 182 -205 424
-302 752 -303 271 0 493 52 730 171 l80 40 0 -344 0 -343 -72 -32 c-100 -43
-260 -88 -399 -111 -238 -41 -634 -45 -848 -10 -479 79 -843 321 -1078 717
-145 245 -223 569 -223 928 0 624 242 1131 705 1476 253 189 609 307 975 322
36 2 76 4 90 5 14 1 104 -3 200 -8z m-2380 -355 l0 -305 -590 0 -590 0 0 -375
0 -375 550 0 550 0 0 -310 0 -310 -550 0 -550 0 0 -385 0 -385 630 0 630 0 0
-305 0 -305 -1005 0 -1005 0 0 1680 0 1680 965 0 965 0 0 -305z"/>
</g>
</svg>
